/* XPM */
static char *_03541a3cd6c4bd4bf20c6efce5b96f4DQUY5cXKAHPPpZKH[] = {
/* columns rows colors chars-per-pixel */
"50 40 236 2 ",
"   c None",
".  c #092F05",
"X  c #0C3B06",
"o  c #0C3408",
"O  c #0B3607",
"+  c #103A0A",
"@  c #0C4107",
"#  c #154C0A",
"$  c #174505",
"%  c #1D5304",
"&  c #155309",
"*  c #1C540E",
"=  c #1C5B0C",
"-  c #1F5B01",
";  c #224E03",
":  c #224702",
">  c #235402",
",  c #295401",
"<  c #245C01",
"1  c #2C5C02",
"2  c #28580B",
"3  c #305D02",
"4  c #215B10",
"5  c #1F610B",
"6  c #256301",
"7  c #2C6202",
"8  c #2D6901",
"9  c #22640E",
"0  c #2A630B",
"q  c #2B6B0D",
"w  c #266B05",
"e  c #336402",
"r  c #356B02",
"t  c #3A6C02",
"y  c #326B0A",
"u  c #386A08",
"i  c #2C7502",
"p  c #2A720E",
"a  c #2B7901",
"s  c #347201",
"d  c #3D7202",
"f  c #357C02",
"g  c #3D7C01",
"h  c #3E730B",
"j  c #38770B",
"k  c #2B6C12",
"l  c #276811",
"z  c #386D11",
"x  c #2D7313",
"c  c #317515",
"v  c #347B14",
"b  c #3A7D18",
"n  c #387817",
"m  c #387C2B",
"M  c #427603",
"N  c #447C02",
"B  c #497F03",
"V  c #447A09",
"C  c #45770B",
"Z  c #4B7E15",
"A  c #416F0E",
"S  c #358401",
"D  c #3C8102",
"F  c #3C8D01",
"G  c #3E9A01",
"H  c #3A8417",
"J  c #3A8317",
"K  c #2B8401",
"L  c #448402",
"P  c #4B8403",
"I  c #438D01",
"U  c #4C8B02",
"Y  c #4B820A",
"T  c #4C8B0B",
"R  c #45810C",
"E  c #518B02",
"W  c #548C0B",
"Q  c #518704",
"!  c #459403",
"~  c #4D9401",
"^  c #459A01",
"/  c #4D9B01",
"(  c #48970B",
")  c #549302",
"_  c #599505",
"`  c #549B02",
"'  c #5C9B03",
"]  c #55930B",
"[  c #5D9A0A",
"{  c #5A950B",
"}  c #438A13",
"|  c #468619",
" . c #5C8B14",
".. c #548610",
"X. c #4C9517",
"o. c #599915",
"O. c #609D03",
"+. c #619D09",
"@. c #66941C",
"#. c #679B15",
"$. c #618D1D",
"%. c #4CA406",
"&. c #5AA301",
"*. c #55AE01",
"=. c #5BAB01",
"-. c #59A609",
";. c #5AB701",
":. c #5AA61A",
">. c #64A303",
",. c #69A604",
"<. c #63AB02",
"1. c #6BAC02",
"2. c #65A30B",
"3. c #68A50B",
"4. c #6CAA0B",
"5. c #71AD0C",
"6. c #73AE06",
"7. c #62B201",
"8. c #6DB301",
"9. c #64BB01",
"0. c #6BBA04",
"q. c #73B302",
"w. c #78B706",
"e. c #74BA01",
"r. c #7BBB02",
"t. c #74B30B",
"y. c #79B60C",
"u. c #7CBA0B",
"i. c #6EA912",
"p. c #6CA513",
"a. c #74AE1A",
"s. c #74AA19",
"d. c #68B71C",
"f. c #76B214",
"g. c #7BB514",
"h. c #7DBA13",
"j. c #7BB41A",
"k. c #7DB818",
"l. c #478A27",
"z. c #5B9A28",
"x. c #559727",
"c. c #5E9C34",
"v. c #4B8C34",
"b. c #6A9826",
"n. c #669C34",
"m. c #68962C",
"M. c #5EA22B",
"N. c #5EA031",
"B. c #64AB29",
"V. c #7BA42D",
"C. c #77A724",
"Z. c #6CB523",
"A. c #74BB2C",
"S. c #74BA28",
"D. c #6DAD34",
"F. c #67A635",
"G. c #78A832",
"H. c #7EBD35",
"J. c #7CBB3C",
"K. c #75B436",
"L. c #72C401",
"P. c #7CC301",
"I. c #7DCC01",
"U. c #72CB01",
"Y. c #78D101",
"T. c #6EC300",
"R. c #7BC628",
"E. c #7CC235",
"W. c #78AB47",
"Q. c #79B940",
"!. c #7FC248",
"~. c #83BB14",
"^. c #84BB1C",
"/. c #83BD0F",
"(. c #81B623",
"). c #85BA23",
"_. c #8BBE2A",
"`. c #80BD3C",
"'. c #8DBD30",
"]. c #84AD31",
"[. c #83C401",
"{. c #84CB01",
"}. c #8CCB01",
"|. c #89D701",
" X c #92D901",
".X c #8DC02C",
"XX c #81CF2B",
"oX c #93C42C",
"OX c #93C625",
"+X c #85C33C",
"@X c #8BC93E",
"#X c #86C539",
"$X c #94C433",
"%X c #9DCB35",
"&X c #9DCA3D",
"*X c #93DA3B",
"=X c #89D430",
"-X c #A4CD3E",
";X c #8BC443",
":X c #8CC54A",
">X c #89C647",
",X c #93CC46",
"<X c #93CB49",
"1X c #9ED94E",
"2X c #8ECB51",
"3X c #9BCF53",
"4X c #94CB56",
"5X c #98D157",
"6X c #A7D74C",
"7X c #B2D84B",
"8X c #A2D755",
"9X c #A4D65B",
"0X c #A6DC59",
"qX c #A7DC58",
"wX c #AAE158",
"eX c #ABE754",
"rX c #A8D968",
"tX c #B1DF71",
"yX c #AEE165",
"uX c #B4E468",
"iX c #B4E173",
"pX c #BAE575",
"aX c #BAE67A",
"sX c #C2EC7D",
"dX c #C7F278",
"fX c #BCE684",
"gX c #BFEA81",
"hX c #C4EB84",
"jX c #C5EC8B",
"kX c #C9EF8A",
"lX c #CBF289",
"zX c #CAF284",
"xX c #C7EE94",
"cX c #D3F499",
"vX c #D0F589",
"bX c #DBF9A6",
/* pixels */
"                                                                                                    ",
"                                              |.                                                    ",
"                                          {. X X X        ;.9.;.7.`                                 ",
"                                P.{.P.P.}.I.I.9. XY.;.Y.U.9.9.=.&.=./ ) ~ N                         ",
"                      q.P.r.e.P.}.P.8.=.7.*.0.*.9.|.U.;.%.G F F S I D g ) g N                       ",
"                      {.}./.8.&.&.&./ F ^ 0.}.L.*.;.|.L.G K a a 6 6 6 < < N U r                     ",
"                    1.}.8.1.<.` ! ^ I 8.e.P.P.[.Y.I.I.I.;.=.*./ I D U I r 1 t t d                   ",
"                    q.r.q.` ~ / F S <.P.[.e.e.I.|.{.|.T.9.L.L.7.<.<.<.' U 1 > N N                   ",
"                  r.r.1.<.&.I f a I e.q.e.e.0.L.{.T.I.0.%.I / =.7.<.-.<.) r $ , e 3                 ",
"                q.r.1.~ ~ ~ I F &.q.8.<.! ( =.*.-.d.A.,X9XrX>X,X,X-.' ' _ L 6 < r f f               ",
"                &.1.1.U I g f ~ r.r.q.=.( :.%.( :.H.,X8XuXsXdXdX8X[ ~ ` &.P D ^ %.! I g r 7         ",
"          <.,.' ,.,._ I I S w U r.q.<.8.-.Z.R.d.:.J.3XuXhXcXvXdX8Xo.U ) E ) g F ! F ~ L D r         ",
"        y.r.w.,.5.3.O._ g } z.D./.q.<.<.:.*X*XR.d.A.rXjXkXlXdX0XK.K.o.P U Q g S S f f L U d 1       ",
"        u.~.OXf.p.5.] 3.) } F.rXfX<X<.` Z.1X1X*X=XR.E.iXsXyX>X+XJ.;XK.W L L L d i i w s d s 7       ",
"      y.t.f.$Xh.O.2._ B P t Z :XfXbX:XX.@XyXyXeXeX*XXXE.0X2X:XiXrX:XJ.z.P U ) N 7 w 6 7 7 d e       ",
"      u.u..Xa.4.,._ _ u u M z J.iXcXzXH.;XaXjXsXuXeX1XZ.5X5X9XhXiX:XK.n.P P P M r 6 6 < 7 r 7       ",
"      w.~.).a.2.4.O.M u e t 3 M.4XxXzX0X`.yXxXxXhXuX*XR.>X3XtXfX3X;XF.l.z g M N t 6 8 < 8 7 1       ",
"    u.u.%X7Xg.2.+.,.B ; 3 3 , h D.tXlXsX<X3XpXxXxXqXwXS.B.@XpXrX+XK.c.l.z d M M e 1 - > , 7 3 ;     ",
"  y.u.y.h..Xg.6.+.W E 3 2 3 7 P o.4XxXcXuX;X9XpXsXpXqXA.B.3XrX<XJ.F.v.m 4 M N B 7 6 < % 1 s d ,     ",
"  t.r./.OX$Xj.3.+.V V d 2 3 e ) T J.rXjXpX<X+X0XpXpXqX#X:.`.<XJ.W.n.v.m 4 , e t 7 6 < 6 7 1 3 , :   ",
"    u.q.h.$X.Xh.4.[ h 1 > 3 e O.T X.Q.rXaXaX>X#X8XrX8XZ.X.D.J.M.n.W.W.m.2 , t M < - < < % ; 1 1 :   ",
"    w.u.~.%X6X(.3._ U y ; 2 u >.&.R X.K.rXxXgX5X`.S.Z.( j | F.W.4X].2 1 3 , , M r < < > < 1 e 3     ",
"    t.y.t._.7X%X~.6.,.' r > u O.<.' U L M.5XfXjXuX<XD.z.c.W.n.A 3 3 e 3 A , 1 M V u 1 7 1 > , >     ",
"      t.h.~.&XoXj.4.3.3.[ 0 3 O.,.8.&.U U B.4XfXhXhXkXlXpXm.t M A A A 3 A , 1 M V  .Z > $ 1 e 1     ",
"    t.t.4.f.%X-X^.5.3.[ R q 2 E ,.q.1.` ~ T B.!.2X>X:X5XD.V M N d t t M t , e t $.$.M > > r y       ",
"    u.q.q.f._.(.g.t.3.] ) P 7 N ,.1.q.,.-.) L } } j j T B M Q Q h d M N e 1 e ..]. .e % 7 d 1       ",
"    t.t.t.k.oXj.2.+.O.>.,.O.B u _ ,.1.6.,.>.' ) U L E P P T ) P M M B t < 3 ..V.V.A < s s 1         ",
"    t.q.1.4.t.f.'.oX~.5.,.O.T 7 B 3.4.1.1.3.,.>.' E ' _ W _ E W P Q B M V  .@.A y 6 s L 8           ",
"      8.e.w.~.OX7X7XoXg.{ T P N e U +.3.,.,.3.,.O.+.O.{ ) ) Q T Q E #.C.#.V 7 5 6 i U D             ",
"        5.y.h.^._..X(.i.{ _ >.O.P e Q _ +.O.+.O.O._ +.O.) Q P P Q ].].@.y = q p i I L %             ",
"            >.2.i.).$Xa.C.h.5.>._ d 1 N E _ #.+.O._ W Q Y B Q  .b.b. .t 0 H v f S i =               ",
"            >.w.~.(.a.'.-X(.p.#.] P P d e t M B W B B { #.p.].C...0 0 q b l.l.k 9 &                 ",
"            2.g.t.4.f.^.j.(.C.#.s.s.s._ Y N d M N  .E C y y z h c H H J x J l = & @                 ",
"                4.,.    4.2.[ #.p.#. .h z y j M M t 0 k J H v v | x.| v x l 4 & @                   ",
"                          U 7 $ * q n b H H v k 9 l n H b b c k n H v l 4 = * X                     ",
"                              . @ * k c v c v n v x x l l 9 * * * n p 9 # # o                       ",
"                                    X @ # * = & = 4 * # # # # * x l = # @                           ",
"                                          o + X . o o o . X = 9 4 &                                 ",
"                                                                                                    ",
"                                                                                                    "
};
