/* XPM */
static char *ae2179e58fdf4f29bffdd747cf85a73fZvlUkNNfACefBwR1[] = {
/* columns rows colors chars-per-pixel */
"100 100 80 1 ",
"  c None",
". c #020101",
"X c #090706",
"o c #0B0807",
"O c #0D0A09",
"+ c #120E0B",
"@ c #15110E",
"# c #1B150C",
"$ c #1F180D",
"% c #161210",
"& c #1C1512",
"* c #1E1913",
"= c #241C0E",
"- c #211714",
"; c #231D12",
": c #281F10",
"> c #241D19",
", c #291F1B",
"< c #272013",
"1 c #2B2415",
"2 c #2E261A",
"3 c #2F2818",
"4 c #322614",
"5 c #362A15",
"6 c #3B2E16",
"7 c #31261A",
"8 c #342B1A",
"9 c #392F1C",
"0 c #3D3216",
"q c #3D321D",
"w c #2E2521",
"e c #332621",
"r c #372C23",
"t c #3A2C25",
"y c #372F28",
"u c #3F3321",
"i c #3E332A",
"p c #43341A",
"a c #47391C",
"s c #4B3B1E",
"d c #423621",
"f c #453923",
"g c #4A3D25",
"h c #44352B",
"j c #4A372C",
"k c #45392E",
"l c #4B3B2D",
"z c #513F21",
"x c #523D2E",
"c c #463B31",
"v c #4D3D30",
"b c #533F30",
"n c #5C3E30",
"m c #4B401F",
"M c #4E4027",
"N c #4F4128",
"B c #534222",
"V c #594624",
"C c #594C24",
"Z c #53442A",
"A c #5C452F",
"S c #57482C",
"D c #5A4A2E",
"F c #5E5026",
"G c #4E4230",
"H c #544330",
"J c #5B4530",
"K c #554930",
"L c #5E4D30",
"P c #5A443A",
"I c #604F31",
"U c #644C3E",
"Y c #645233",
"T c #695635",
"R c #6C5936",
"E c #6E5A38",
"W c #715D39",
"Q c #73623B",
"! c #7D663F",
"~ c #624B43",
/* pixels */
"                                                                                                    ",
"                                                                                                    ",
"                                                                                                    ",
"                                                                                                    ",
"                                                                                                    ",
"                                                                                                    ",
"                                                                                                    ",
"                                                                                                    ",
"                                                                                                    ",
"                                                                                                    ",
"                                                                                                    ",
"                                                                                                    ",
"                                                                                                    ",
"                                                                                                    ",
"                                                                                                    ",
"                                                                                                    ",
"                                                                                                    ",
"                                                                                                    ",
"                                                                                                    ",
"                                                                                                    ",
"                                                                                                    ",
"                                                                                                    ",
"                                                          fqd                                       ",
"                                                      fSNMu9dN                                      ",
"                                              ff  NYEgZNfdgdgZZN                                    ",
"                                             ZZuggZNSgDf9fgdggZIgNfLS                               ",
"                                            TZfSgZZJSDNgZgqdqfgZLZZLY                               ",
"                                         SSLDYADNfSSSSLDDIDTLugNMZMZRJ                              ",
"                                        DDIIJLYJJLLZfzdxDLDZgLRgSgLZZT                              ",
"                                       SLLKIIZLLJJJbJIILDfSLWEIIARNSDZ                              ",
"                                ZDJugZqHvLLLLbJLLJxbIDJJLLLLJZITZYEDYSS                             ",
"                                SfgZA9IJJJLIIHIHILJJHxbAILJLLLgudZTETLS                             ",
"                                SggZuKKHJHLILJLJJLLLLHJJJIInLL<29dSLSffZ                            ",
"                                ggfuSHJLxLLLLLvJHJJLJHGLILLILL>fuuNZNfffggD                         ",
"                             u9fMMu<JLLLYLLjIYZLJJHJLLLvLHLLLLJwg<gDfqdduq9fu                       ",
"                             NfuMS1LLjvLLHLLLDP~UILLJJJLILLLLJJ><*<Mu7q99988q                       ",
"                             gNSMSLJnbcILJLLILDAALIjJKhJLLLLLDYryk<89f39q9f97                       ",
"                             uZSDZLJJLxDLLLHAAYIxJIlLJLKJLGLLYLDrwk<Su8979d37                       ",
"                             fNSDAIKLLtLDLLJDbYDAAAKKILiHLZLLLLLIwLwqZ99qdgqdd                      ",
"                             gNNLDGLLLLLYLJjjbLLIILLLLLSHjYDLLLYIwwk<fSuq979qq                      ",
"                            udMZZHKGLcJLLLLjtLLILIDLKLLLIvLLYLLLYL*<3MfSffqffq                      ",
"                           qZSTYSLLKYJhLLJLLrLILLIILLLLJJJDYDYILLLlH38ZLd9uqu9                      ",
"                          8dgATSS3KLcvLIiLLHrLLLLLLLIILlHLLDLLLLLLfO13KRLZ9qqq                      ",
"                          9gSZLRT3HGHJLLLLHLLLLLIDLIIKLbHHLYYILIIL.X11gLRDgq9uq                     ",
"                          qSZZZZN1LHcILILDHLJLjLILILLLJbLLLDLLIIL..><33ZLZu3fqu                     ",
"                        p  gZZIDTQ<LILLJLKHHLLLjDIGNihJIDILLFILI%.X;;3uZgLMZNZS                     ",
"                           gZIIDfuG*ILKHLHLLGGHJHHkkJLLJLLLILLLL.XO<;<dLZSMggZS  0  a               ",
"                    pq   ppZgSDTTL*%LGHJLJLLDLHlJZLGHhZLJLILLLL..XX118dZKYJZ7gd0 B                  ",
"                           gYLYYDDY=7ccJItt8nDLJLHJGHILKblcJLII.+o<13SMSMSLDgDSs                    ",
"                         NudYQERRTWE&*>e>o.o+hLLJLKyhLLLILLLLIo.@o**MMSZMZNLqgf z  B     6          ",
"                        pgdgE!TRSDYWI9X.XXo....XuHGwKLJcNHJLLK..&.L<<SMZDDDSfM s        B           ",
"                         dguNQQTYYYDID>X......&iXiZcLLLLLLLLKi.@.yL33fNNNYLZ9N      pp              ",
"                        a8qggSZSRRLYLLZX....+-&XX..ojLLHKLLLH..ooMMMSSfMgMYiMf  5aa                 ",
"                   B a   gZqMZSfgqDLEgq@X...X#........lHlHLLH.XqfgfMMuqffgggqu                      ",
"                      s dugZMgSSLDSSLdgS*..O>t......<&e&&Je2..#=MMuMMLfMggfff9                      ",
"               p   g   agfMNMNMMDNfffqAgZ.-.............XXX2.=$gNDfMMDMMgfu138q                     ",
"               s    qp addMZZMu9qf83qISIL.+%*+..............ZDZNguLSSSMMZDf9qfg                     ",
"              p    6Tqa6dfdf9Mqq9ag9fuuMCmoO@O>oX+X&..o...3qfgNSLNfgDLfMZMd99dpq                    ",
"             am   aa  p KfMuudMuMffDKMMMCMu3o%%*X.>+@O.@O@@9ZDSZSZSSYDSLgZZ9ugf                     ",
"            a p     a  gdMf8qdqMuSSLLSDMFmMq$1a;::=:::3<#O#3qjZgMLNMDLSLDDDqff 0z                   ",
"        q p          9KMdqNf8838ddMMMMMfCMqM4411338;1111<1=79uggZggZDSDLYDDfpq           pVp   6V   ",
"         z     6p   99KIIMNuu88<9Mqd9qqqBSMq=:1::::;=$<3*$*999uNNJHZggNYLSZa900s        pps    5    ",
"                  00388dZMZfMqMMdqMd99qqCMSM$=:141:=;==$$5#13999ZILYDgSDfNN9t0    p  z  p           ",
"      z      6      35qq983qf9uqMqqq98qqCqMm<1377779981<<<<77d3uuSITLSKLgffg9up6gpVp                ",
"     a      ap Zz   776pgdu9u8uffggg9qu9fM9Z<3117788q989371;6q9uq7SgNgJSLdduqz   SD  a  BB   ap     ",
"         p         p33qsq 6qq999ffgufq33gMRZ378711=1393131388u3fdfgDZffZqu99g    9q     aa          ",
"        6   p     sp         q7919qqq8889MD$<<::=$=1::<=<311<u8uqdqdgSNrpuf   p6p                   ",
"          pB  qs  7     B     78u9pg93<38MZ<1391==::1<::==3:<;8quqffd9dqf6     Z   5a  4a    qB   pp",
" 5              pq     BBp  p  ssp s    qM3pg67981::141=$===137979qfdq9up6    9qq                   ",
"                       ppp    pq6          0p6387:asp4::=$#$==3B989ud997     6g9                    ",
"          6         pB                            p0p    sq    6899u9339p          p   gp           ",
"              z        g6          g                               89f6ap    Bz   6pa               ",
"                pzza       566                           az         a              pp               ",
"                 p  B                                     sp   5B      6     Bp Bas                 ",
"                      Vs                          azBp    BB   0ap    6ap                           ",
"                     pBp                          6pa     a          q    sa                        ",
"                        sB     V                         spp        6ppp             pV             ",
"       V                6                                        gs  pp                             ",
"                  p                   a                          aV      560    s                   ",
"                  p                                                    g  q          zg             ",
"                           p                                  6a               p                    ",
"                          sBa                          az      0                                    ",
"                           V6                                                                       ",
"                                                                                                    ",
"                                                                                                    ",
"                                                                                                    ",
"                                                                                                    ",
"                                                                                                    ",
"                                                                                                    ",
"                                                                                                    ",
"                                                                                                    ",
"                                                                                                    ",
"                                                                                                    ",
"                                                                                                    ",
"                                                                                                    ",
"                                                                                                    ",
"                                                                                                    ",
"                                                                                                    ",
"                                                                                                    ",
"                                                                                                    "
};
