/* XPM */
static char *c20683cbb09b4c8388ea679a0aa73007wqM3HP1qLRkMU8LA[] = {
/* columns rows colors chars-per-pixel */
"100 100 69 1 ",
"  c None",
". c black",
"X c #010000",
"o c #010100",
"O c #060402",
"+ c #080504",
"@ c #0B0705",
"# c #0F0A07",
"$ c #100A07",
"% c #18100B",
"& c #1E140E",
"* c #1F140E",
"= c #20150E",
"- c #22160F",
"; c #261911",
": c #271911",
"> c #2A1C13",
", c #2B1C13",
"< c #2D1D14",
"1 c #362318",
"2 c #372418",
"3 c #372419",
"4 c #3E291C",
"5 c #482F20",
"6 c #4C3122",
"7 c #4C3222",
"8 c #503424",
"9 c #543726",
"0 c #583A28",
"q c #593A28",
"w c #68442E",
"e c #6B462F",
"r c #6A4630",
"t c #714933",
"y c #704A32",
"u c #714A32",
"i c #734B33",
"p c #754C35",
"a c #774E35",
"s c #774E36",
"d c #7A5037",
"f c #7C5137",
"g c #7D5238",
"h c #7E5339",
"j c gray26",
"k c gray32",
"l c #805439",
"z c #815439",
"x c #86573C",
"c c #88593D",
"v c #8F5D40",
"b c #936042",
"n c #956143",
"m c #9A6445",
"M c #9A6545",
"N c #9B6545",
"B c #9C6645",
"V c #9E6747",
"C c #A06848",
"Z c #A26A48",
"A c #A36B49",
"S c #A46B49",
"D c #A56C49",
"F c #A56C4A",
"G c #A66D4A",
"H c #CBBCB2",
"J c #DCCCC3",
"K c gray85",
"L c gray94",
/* pixels */
"                                                                                                    ",
"                                                                                                    ",
"                                                                                                    ",
"                                                                                                    ",
"                                                                                                    ",
"                                                                                                    ",
"                                                                                                    ",
"                                                                                                    ",
"                                                                                                    ",
"                                                                                                    ",
"                                                                                                    ",
"                                                                                                    ",
"                                                                                                    ",
"                                                                                                    ",
"                                                                                                    ",
"                                                                                                    ",
"                                                                                                    ",
"                                                                                                    ",
"                                                                                                    ",
"                                                                                                    ",
"                                                                                                    ",
"                                                                                                    ",
"                                                                                                    ",
"                                                                                                    ",
"                                                                                                    ",
"                                                                                                    ",
"                                                                     .....                          ",
"                                                                    .wpi.q@.                        ",
"                                                                    .vVV.d@.                        ",
"                                                                .....vVV......                      ",
"                                                               ...VV.vVV.VVVV.........              ",
"                                                              ..vVVVVVVVVVVVVVVVVVVV$...            ",
"                                                              .iNVVVVVVVVVVVVVVVVVVVpii..           ",
"                                                              .VVVVVVVVVVVVVVVVVVVVVVVV..           ",
"                                                             ..VVVVVVVVGGGGGGVVVVVVVVVVV...         ",
"                                                           ...VVVVGGGGGGGGGGGGGGGGGGGGVVV$..        ",
"                                                   ..........VVGGGGGGGGGGGGGGGGGGGGGGGGVVVV..       ",
"                                         ...........iiiiiiiiiVSGGGGGGGGGGGGGGG<HJ,GGGGGGVVVi..      ",
"                                         ...........VVVVVVVVVVGGGGGGGGGGGGGGGG.KL.GGGGGGVVVV..      ",
"             .............................VVVVVVVVVVVVVVVVVGGGGGGGGGGGGGGGGGGGLkj.GGGGGGVVVVV.      ",
"           ...vVVVVVVVVVVVVVVVVVVVVVVVVVVVVVVVVVVVVVVVVVGGGGGGGGGGGGGGGGGfZGGG....GGGGGGVVVVV.      ",
"         ...VVVVVVVVVVVVVVVGGGGGGGGGGGGGGGGGGGGGGGGGGGGGGGGGGGGGGGGGGGGGGGlfGGGGGGGGGGGGVVV...      ",
"        ...iVVVVVVVCSSGSSSSGGGGGGGGGGGGGGGGGGGGGGGGGGGGGGGGGGGGGGGGGGGGGGGVNGGGGGGGGGGGGVVV...      ",
"        ...VVVVVVVVGGGGGGGGGGGGGGGGGGGGGGGGGGGGGGGGGGGGGGGGGGGGGGGGGGGGGGGGGGGGGGGGGGGGGVVV...      ",
"        .vVVVVVVGGGGGGGGGGGGGGGGGGGGGGGGGGGGGGGGhZGGGGGGGGGGGGGGGGGGGGGGGGGGGGGGGGGGGGGGVVVV..      ",
"        .vVVVGGGGGGGGGGGGGGGGGGGGGGGGGGGGGGGGGGGGlfGGGGGGGGGGGGGGGGGGGGGGGGGGGGGGGGGGGGGVVVVV.      ",
"       ..vVVGGGGGGGGGGGGGGGGGGGGGGGGGGGhdGGGGGGGGGGGGGGGGGGGGGGGGGGGGGGGGGGGGGGGGGGGGGGGVVVV..      ",
"       .iNVVGGGGGGGGGGGGGGGGGGGGGGGGGGGlfcGGGGGGGGGGGGGGGGGGGGGGGGGGGGGGGGGGGGGGGGGGGGGCVVVV.       ",
"       .VVVVGGGGGGGGGGGGGGGGGGGGGGGGGGGlhfGGGGGGGGGGGGGGGGGGGGGGGGGGGGGGGGGGGGGGGGGGGGGVVVVV.       ",
"      ..VVVVGGGGGGGGGGGGGGVGGGGGGGGGGGGGGGGGGGGGGGGGGGGGGGGGGGGGGG.VVGGGGGGGGGGGGGGGVVVVVVV..       ",
"      .VVVVVGGGGGGGGGGGGVVVVVGGGGGGGGGGGGGGGGGGGGGGGGGGGGGGGGGGGGG..VVVGGGGGGGGGGVVVVVVVV#..        ",
"      .VVVVVGGGGGGGGGGVV#.VVVVVGGGGGGGGGGGGGGGGGGGGGGGGGGGGGGGGGGGV..vVVVVVVVVVVVVVVVVVV...         ",
"      .VVVVVGGGGGGGGGGVV#.,,VVVCGGGGGGGGGGGGGGGGGGGGGGGGGGGGGGGGGGVi.:,,,VVVVVVVVVVV2,,,.           ",
"      .VVVVVGGGGGGGGGGVV#...VVVVGGGGGGGGGGGGGGGGGGGGGGGGGGGGGGGGGGVV.....VVVVVVVVVVV#....           ",
"      .VVVVVGGGGfGGGGGVVVVV..vVVGGGGGGGGGGGGGGGGhZGGGGGGGGGGGGGGGGGVVVVV..............              ",
"      .VVVVVVGGGGhGGGGGVVVVV...VVGGGGGGGGGGGGGGhGGGGGGGGGGGGGGGGGGGGGVVVVV#.                        ",
"      .VVVVVVGGGGGGGGGGVVVVVV#.VVGGGGGGGGGGGGGGGGGGGGGGGGGGGGGGfGGGGGVVVV...                        ",
"      .VVVVVVGGGGGGGGGGSVVVVV#.VSGGGGGGGGGGGGGGGGGGGGGGGGGGGGGGhCGGGGVVVV.                          ",
"      .VVVVVVGGGGGGGGGGGVVVVV#.VGGGGGGGGGGGGGGGGGGGGGGGGGGGGGGGfCGGGGVVVV.                          ",
"      .VVVVVVVGGGGGGGGGGVVVVV#.VGGGGGGGGGGGGGGGGGGGGVVVVGGGGGGGGGGGGGVVVV.                          ",
"      ..VVVVVVSGGGGGGGGGVVVVV$.VGGhdGGGGGGGGGGGGGGGV.VVVVGGGGGGGGGGGVVVV..                          ",
"       .VVVVVVVVGGGGGGGGGGVV...VGdZGGGGGGGGGGGGGGVVV.VVVVVGGGGGGGGGVVVV...                          ",
"       .,bVVVVVVGGGGGGGGGGVV.wiVGNSGGGGGGGGGGGGCCVVV.VVVVVGGGGGGGGCVV1,.q                           ",
"       .OcVVVVVVGGGGGGGGGGVVOcVVGGGGGGGGGGGGGGGVVVVV.VVVVVGGGGGGGGVVV#..                            ",
"        .ifVVVVVGGGGGGGGGGVV.vVVVVSGGGGGGGGGVVVVVVVV.VVVVGGGGGGGGGVV..                              ",
"         ...VVVVVGGGGGGGGGVV....iVVVVGGGGGVVVVVVVVVV.VVVVGGGGGGGGGV..                               ",
"           .VVVVVGGGGGGGGGVV..d.....VVVVVVVVVVVVVVV...vVVGGGGGGGVV....                              ",
"           .xVVVVGGGGGGGGGVV..d..q+.>>,,,,,,,,,,,,,. .vVVVGGGGGCV3.-..                              ",
"           .fVVVVGGGGGGGGGVV.*r.     ............... .vVVVGGGGGVV..d..                              ",
"            .hNVVGGGGGGGGGV..d..                     .vVVVGGGGVVn.%d..                              ",
"            ..ifVVGGGGGGGGO.4d..                     ...VVGGGGVV..dd..                              ",
"             ...VVGGGGGGVV..d*.                       ..VVVGGVVV..dd..                              ",
"              ..VVCGGGGG2..dd..                       ..,VVCCVV:.6dd.                               ",
"              ..VVVSGGGG$..dd..                       ...VVVVVV..dsi.                               ",
"                .VVGGGGV..dd..                          .VVVVVV..dd6.                               ",
"                ..VGGGG..5dd..                          ..VVVVV..dd-.                               ",
"                 .VVVVV..sdd.                            .VVVVV..qd..                               ",
"                 .VVVV,...d8.                            .VVVV,..,d..                               ",
"                 .VVVV....d..                            .VVVV....d..                               ",
"                 .VVVV. ..d..                            .VVVV.  ....                               ",
"                 .hNVV.  .9.                             .VVVV.  ...                                ",
"                 ..ihV.  ...                             ..ihV.   ..                                ",
"                  .*-,.   p                               .*->.                                     ",
"                  .....                                   .....                                     ",
"                                                                                                    ",
"                                                                                                    ",
"                                                                                                    ",
"                                                                                                    ",
"                                                                                                    ",
"                                                                                                    ",
"                                                                                                    ",
"                                                                                                    ",
"                                                                                                    ",
"                                                                                                    ",
"                                                                                                    ",
"                                                                                                    ",
"                                                                                                    ",
"                                                                                                    ",
"                                                                                                    ",
"                                                                                                    "
};
