/* XPM */
static char *_bafc1516baf4726dc39c7200a9a00d3eDc3I5shNl0A6DPC[] = {
/* columns rows colors chars-per-pixel */
"100 100 69 1 ",
"  c None",
". c black",
"X c #010000",
"o c #010100",
"O c #060402",
"+ c #080504",
"@ c #0B0705",
"# c #0F0A07",
"$ c #100A07",
"% c #18100B",
"& c #1E140E",
"* c #1F140E",
"= c #20150E",
"- c #22160F",
"; c #261911",
": c #271911",
"> c #2A1C13",
", c #2B1C13",
"< c #2D1D14",
"1 c #362318",
"2 c #372418",
"3 c #372419",
"4 c #3E291C",
"5 c #482F20",
"6 c #4C3122",
"7 c #4C3222",
"8 c #503424",
"9 c #543726",
"0 c #583A28",
"q c #593A28",
"w c #68442E",
"e c #6B462F",
"r c #6A4630",
"t c #714933",
"y c #704A32",
"u c #714A32",
"i c #734B33",
"p c #754C35",
"a c #774E35",
"s c #774E36",
"d c #7A5037",
"f c #7C5137",
"g c #7D5238",
"h c #7E5339",
"j c gray26",
"k c gray32",
"l c #805439",
"z c #815439",
"x c #86573C",
"c c #88593D",
"v c #8F5D40",
"b c #936042",
"n c #956143",
"m c #9A6445",
"M c #9A6545",
"N c #9B6545",
"B c #9C6645",
"V c #9E6747",
"C c #A06848",
"Z c #A26A48",
"A c #A36B49",
"S c #A46B49",
"D c #A56C49",
"F c #A56C4A",
"G c #A66D4A",
"H c #CBBCB2",
"J c #DCCCC3",
"K c gray85",
"L c gray94",
/* pixels */
"                                                                                                    ",
"                                                                                                    ",
"                                                                                                    ",
"                                                                                                    ",
"                                                                                                    ",
"                                                                                                    ",
"                                                                                                    ",
"                                                                                                    ",
"                                                                                                    ",
"                                                                                                    ",
"                                                                                                    ",
"                                                                                                    ",
"                                                                                                    ",
"                                                                                                    ",
"                                                                                                    ",
"                                                                                                    ",
"                                                                                                    ",
"                                                                                                    ",
"                                                                                                    ",
"                                                                                                    ",
"                                                                                                    ",
"                                                                                                    ",
"                                                                                                    ",
"                                                                                                    ",
"                                                                                                    ",
"                                                                                                    ",
"                          .....                                                                     ",
"                        .@q.iie.                                                                    ",
"                        .@d.VVv.                                                                    ",
"                      ......VVv.....                                                                ",
"              .........VVVV.VVv.VV...                                                               ",
"            ...#VVVVVVVVVVVVVVVVVVVv..                                                              ",
"           ..iiaVVVVVVVVVVVVVVVVVVVmi.                                                              ",
"           ..VVVVVVVVVVVVVVVVVVVVVVVV.                                                              ",
"         ...VVVVVVVVVVVGGGGGGVVVVVVVV..                                                             ",
"        ..#VVVGGGGGGGGGGGGGGGGGGGGVVVV...                                                           ",
"       ..VVVVGGGGGGGGGGGGGGGGGGGGGGGGVV..........                                                   ",
"      ..iVVVSGGGGG<JH<GGGGGGGGGGGGGGGSViiiiiiiii...........                                         ",
"      ..VVVVGGGGGG.LK.GGGGGGGGGGGGGGGGVVVVVVVVVV...........                                         ",
"      .VVVVVGGGGGG.jkLGGGGGGGGGGGGGGGGGGGVVVVVVVVVVVVVVVVV.............................             ",
"      .VVVVVGGGGGG....GGGZfGGGGGGGGGGGGGGGGGVVVVVVVVVVVVVVVVVVVVVVVVVVVVVVVVVVVVVVVVVv...           ",
"      ...VVVGGGGGGGGGGGGflGGGGGGGGGGGGGGGGGGGGGGGGGGGGGGGGGGGGGGGGGGGGGGGVVVVVVVVVVVVVVV...         ",
"      ...VVVGGGGGGGGGGGGmVGGGGGGGGGGGGGGGGGGGGGGGGGGGGGGGGGGGGGGGGGGGGGGGSSSSSSSZVVVVVVVi...        ",
"      ...VVVGGGGGGGGGGGGGGGGGGGGGGGGGGGGGGGGGGGGGGGGGGGGGGGGGGGGGGGGGGGGGGGGGGGGGVVVVVVVV...        ",
"      ..VVVVGGGGGGGGGGGGGGGGGGGGGGGGGGGGGGGGGGGGGGZfGGGGGGGGGGGGGGGGGGGGGGGGGGGGGGGGVVVVVVv.        ",
"      .VVVVVGGGGGGGGGGGGGGGGGGGGGGGGGGGGGGGGGGGGGhlGGGGGGGGGGGGGGGGGGGGGGGGGGGGGGGGGGGGVVVv.        ",
"      ..VVVVGGGGGGGGGGGGGGGGGGGGGGGGGGGGGGGGGGGGGGGGGGGGGGGdhGGGGGGGGGGGGGGGGGGGGGGGGGGGVVv..       ",
"       .VVVVZGGGGGGGGGGGGGGGGGGGGGGGGGGGGGGGGGGGGGGGGGGGGGcflGGGGGGGGGGGGGGGGGGGGGGGGGGGVVmi.       ",
"       .VVVVVGGGGGGGGGGGGGGGGGGGGGGGGGGGGGGGGGGGGGGGGGGGGGhflGGGGGGGGGGGGGGGGGGGGGGGGGGGVVVV.       ",
"       ..VVVVVVVGGGGGGGGGGGGGGGVV.GGGGGGGGGGGGGGGGGGGGGGGGGGGGGGGGGGGGGGGVGGGGGGGGGGGGGGVVVV..      ",
"        ..#VVVVVVVVGGGGGGGGGGVVV..GGGGGGGGGGGGGGGGGGGGGGGGGGGGGGGGGGGGGVVVVVGGGGGGGGGGGGVVVVV.      ",
"         ...VVVVVVVVVVVVVVVVVVv..VGGGGGGGGGGGGGGGGGGGGGGGGGGGGGGGGGGGVVVVV.#VVGGGGGGGGGGVVVVV.      ",
"           .,,,1VVVVVVVVVVV,,,:.iVGGGGGGGGGGGGGGGGGGGGGGGGGGGGGGGGGGZVVV,,.#VVGGGGGGGGGGVVVVV.      ",
"           ....#VVVVVVVVVVV.....VVGGGGGGGGGGGGGGGGGGGGGGGGGGGGGGGGGGVVVV...#VVGGGGGGGGGGVVVVV.      ",
"              ..............VVVVVGGGGGGGGGGGGGGGGGZhGGGGGGGGGGGGGGGGVVv..VVVVVGGGGGhGGGGVVVVV.      ",
"                        .#VVVVVGGGGGGGGGGGGGGGGGGGGGfGGGGGGGGGGGGGGVV...VVVVVGGGGGfGGGGVVVVVV.      ",
"                        ...VVVVGGGGZhGGGGGGGGGGGGGGGGGGGGGGGGGGGGGGVV.#VVVVVVGGGGGGGGGGVVVVVV.      ",
"                          .VVVVGGGGZfGGGGGGGGGGGGGGGGGGGGGGGGGGGGGGZV.#VVVVVSGGGGGGGGGGVVVVVV.      ",
"                          .VVVVGGGGZhGGGGGGGGGGGGGGGGGGGGGGGGGGGGGGGV.#VVVVVGGGGGGGGGGGVVVVVV.      ",
"                          .VVVVGGGGGGGGGGGGGVVVVGGGGGGGGGGGGGGGGGGGGV.#VVVVVGGGGGGGGGGVVVVVVV.      ",
"                          ..VVVVGGGGGGGGGGGVVVV.VGGGGGGGGGGGGGGGdhGGV.#VVVVVGGGGGGGGGSVVVVVV..      ",
"                          ...VVVVGGGGGGGGGVVVVV.VVVGGGGGGGGGGGGGGZdGV...VVGGGGGGGGGGVVVVVVVV.       ",
"                           q.,1VVVGGGGGGGGVVVVV.VVVCZGGGGGGGGGGGGGmGVie.VVGGGGGGGGGGVVVVVVb,.       ",
"                            ..$VVVGGGGGGGGVVVVV.VVVVVGGGGGGGGGGGGGGGVVv.VVGGGGGGGGGGVVVVVVv..       ",
"                              ..VVGGGGGGGGGVVVV.VVVVVVVVGGGGGGGGGGVVVVv.VVGGGGGGGGGGVVVVVhi.        ",
"                               ..VGGGGGGGGGVVVV.VVVVVVVVVVGGGGGVVVVi....VVGGGGGGGGGVVVVV...         ",
"                              ....VVGGGGGGGVVv...VVVVVVVVVVVVVVV.....d..VVGGGGGGGGGVVVVV.           ",
"                              ..-.3VZGGGGGVVVv. .,,,,,,,,,,,,,,,.@q..d..VVGGGGGGGGGVVVVx.           ",
"                              ..d..VVGGGGGVVVv. ...............     .r*.VVGGGGGGGGGVVVVf.           ",
"                              ..d%.nVVGGGGVVVv.                     ..d..VGGGGGGGGGVVVh.            ",
"                              ..dd..VVGGGGVV...                     ..d4.OGGGGGGGGVVfi..            ",
"                              ..dd..VVVGSVVV..                       .*d..VVGGGGGGVV...             ",
"                               .dd6.:VVZZVV,..                       ..dd..3GGGGSZVV..              ",
"                               .ydd..VVVVVV...                       ..dd..$GGGGSVVV..              ",
"                               .6dd..VVVVVV.                          ..dd..VGGGGVV.                ",
"                               .-dd..VVVVV..                          ..dd5..GGGSV..                ",
"                               ..dq..VVVVV.                            .dds..VVVVV.                 ",
"                               ..d,..,VVVV.                            .8d...,VVVV.                 ",
"                               ..d....VVVV.                            ..d....VVVV.                 ",
"                               ....  .VVVV.                            ..d.. .VVVV.                 ",
"                                ...  .VVVV.                             .9.  .VVmh.                 ",
"                                ..   .Vhi..                             ...  .Vhi..                 ",
"                                     .,-*.                               a   .,-*.                  ",
"                                     .....                                   .....                  ",
"                                                                                                    ",
"                                                                                                    ",
"                                                                                                    ",
"                                                                                                    ",
"                                                                                                    ",
"                                                                                                    ",
"                                                                                                    ",
"                                                                                                    ",
"                                                                                                    ",
"                                                                                                    ",
"                                                                                                    ",
"                                                                                                    ",
"                                                                                                    ",
"                                                                                                    ",
"                                                                                                    ",
"                                                                                                    "
};
