/* XPM */
static char *_f4b475ecb9b47b8efea684842b6a26droBvGYd2X013WTeP[] = {
/* columns rows colors chars-per-pixel */
"100 100 37 1 ",
"  c None",
". c black",
"X c #010101",
"o c #0C0805",
"O c #0E0906",
"+ c #0F0A07",
"@ c #100A07",
"# c #1E140D",
"$ c #181818",
"% c #66432E",
"& c #6D4831",
"* c #6E4831",
"= c #6F4932",
"- c #704932",
"; c #704A32",
": c #794F36",
"> c #7A5037",
", c #7D5238",
"< c gray26",
"1 c #81543A",
"2 c #8E5C40",
"3 c #8F5D40",
"4 c #905E41",
"5 c #956242",
"6 c #9A6545",
"7 c #9C6646",
"8 c #9E6747",
"9 c #9F6747",
"0 c #A26A48",
"q c #A26B48",
"w c #A36B49",
"e c #A46C49",
"r c #A56C49",
"t c #A56D4A",
"y c #A66D4A",
"u c gray87",
"i c gray94",
/* pixels */
"                                                                                                    ",
"                                                                                                    ",
"                                                                                                    ",
"                                                                                                    ",
"                                                                                                    ",
"                                                                                                    ",
"                                                                                                    ",
"                                                                                                    ",
"                                                                                                    ",
"                                                                                                    ",
"                                                                                                    ",
"                                                                                                    ",
"                                                                                                    ",
"                                                                                                    ",
"                                                                                                    ",
"                                                                                                    ",
"                                                                                                    ",
"                                                                                                    ",
"                                                                                                    ",
"                                                                                                    ",
"                                                                                                    ",
"                                                                                                    ",
"                                                                                                    ",
"                                                                                                    ",
"                                                                                                    ",
"                                                                                                    ",
"                         .....                                                                      ",
"                        .>.+88.                                                                     ",
"                        .&.+88.                                                                     ",
"                     ......+88.....                                                                 ",
"              ........+888.+88.888..                                                                ",
"           ....88888888888888888888...                                                              ",
"          ..+88888888888999979998888..                                                              ",
"          .@#88888888888999099778888..                                                              ",
"         ..888888808880tttttt9998888...                                                             ",
"        ..8888yytwyyttyyttttttyyyy8882..                                                            ",
"      ...8888yyyyyyyyyyyttyyyyyyyyyy888.......XX.                                                   ",
"     ..+888yyyyyy5.i.yyyttyyyyyyyyyyyy88888880w1...........                                         ",
"     .@#888yyyyyy5.u$yyyyyyyyyyyyyyyyy8888888884@@@@@@@@@+.                                         ",
"     .88888yyyyyy5.<iyyyyyyyyyyyyyyyyyyy8888888888888888w1............................              ",
"     .88888yyyyyy5...yyyy,yyyyyyyyyyyyyyyyyy88888080808000088088888888888888888888888....           ",
"     ....88yyyyyyyyyyyyy,yyyyyyyyyyyyyyyyyyyyyyywwwywwwyywyywywwyyyyyyyyy888888888888882..          ",
"     ....80yyyyyyyyyyyyyyyyyyyyyyyyyyyyyyyyyyyyyyyyyyyyyyyyyyyyyyyyyyyyyyyyyyyyy888888888..         ",
"     ...@88yyyyyyyyyyyyyyyyyyyyyyyyyyyyyyyyyyyyyyywyyyyyyyyyyyyyyyyyyyyyyyyyyyyy888088888@.         ",
"     ..@888yyyyyyyyyyyyyyyyyyyyyyyyyyyyyyyyyyyyyyy,yyyyyyyyyyyyyyyyyyyyyyyyyyyyywyyy088888.         ",
"     .99888tyyyyyyyyyyyyyyyyyyyyyyyyyyyyyyyyyyyyy,yyyyyyyyywyyyyyyyyyyyyyyyyyyyyyyyyyw8088.         ",
"     ..+888wyyyyyyyyyyyyyyyyyyyyyyyyyyyyyyyyyyyyyyyyyyyyyyw,yyyyyyyyyyyyyyyyyyyyyyyyyyyy88...       ",
"      .+88880yyyyyyyyyyyyyyyyyyyyyyyyyyyyyyyyyyyyyyyyyyyyw,1yyyyyyyyyyyyyyyyyyyyyyyyyyyw888..       ",
"      .+28888ywyyyyyyyyyyyyyyyeew5yyyyyyyyyyyyyyyyyyyyyyyw11yyyyyyyyyyyyywyyyyyyyyyyyyyy799..       ",
"      ...888888yyyyyyyyyyyyyyy994.yyyyyyyyyyyyyyyyyyyyyyywyyyyyyyyyyyyyyw0yyyyyyyyyyyyyy999...      ",
"        ..888888888yyyyyyyyyy99...yyyyyyyyyyyyyyyyyyyyyyyyyyyyyyyyyyyy88888yyyyyyyyyyyyt97992.      ",
"         ..8888888888888888899..+0yyyyyyyyyyyyyyyyyyyyyyyyyyyyyyyyyyy88888.888yyyyyyyyyt99992.      ",
"          .....88888888888.....988wyyyyyyyyyyyyyyyyyyyyyyyyyyyyyyyyy888....888yyyyyyyyyt78882.      ",
"          .....22222222222..@@+788yyyyyyyyyyyyyyyywyyyyyyyyyyyyyyyyw882..@@888yyyyy0ttyt88882.      ",
"              .............+99990yyyyyyyyyyyyyyyyy,yyyyyyyyyyyyyyyyy88..@88888yyyy0,tttt88882.      ",
"                        .88899yywyyyyyyyyyyyyyyyyyy,1yyyyyyyyyyyyy888..88888yyyyy,1ytt9888882.      ",
"                        ..8888yyyyy,yyyyyyyyyyyyyyyyyyyyyyyyyyyyyy008.887999yyyyyyyyyy9978884X      ",
"                         .8888yyyyy,yyyyyyyyyyywyyyyyyyyyyyyyyyyyyww8.88999tyyyyyyyyyy9999882X      ",
"                         .8888yyyyy1yyyyyyyywwwwyyyyyyyyyyyyyyyyyyyy8.88979tyyyyyyyyte9797992.      ",
"                         .8888yyyyyyyyyyyyyw0808yyyyyyyyyyyyyyyyyyyw8.88990yyyyyyyyyt79997992.      ",
"                         ..@888yyyyyyyyyyyw888.+0wyyyyyyyyyyyyyy>tty9.79788tyyyyyyttt999979...      ",
"                         ....8888yyyyyyyy80888.+88yyyyyyyyyyyyyyt,tw9.X988ttyyyyyytt9979979X.       ",
"                        ..>&..8888yyyyyyy88888.@88078wyyyyyyyyyytttt99X999ttyyyyyytt979999...       ",
"                        .+>-o.2888yyyyyyw08888.@88880wyyyyyyyyyyt0tt79X990ytyyyyyytt999797...       ",
"                       ..>>>>..888yyyyyyyyy888.+8888888yyyyyyyyyy80888.899eyyyyyyyyy97979,.         ",
"                    ....>>>>>>..+8yyyyyyyyw888.+8888888888yyyyy88801...879yyyyyyyye99792.X          ",
"               ......,>>>>>>>>>.@88yyyyyyyy88....888888888888888...+>:.899yyyyyyyye99992.           ",
"             ...,>:,>>>>>>>>>>>...88yyyyy8888.  .................>>>>,.899yyyyyyyye999,;.           ",
"             .oo:>>>>>>>>>>:&&&...88wyyyy8888.  ................+>>>>>.229yyyyyyyye997;%.           ",
"             .:,>>:,>>:,>>>&......8888yyy8888.               ...:>>>>>..+8yyyyyyyye97,..            ",
"             ................    ..888yyy888..              .>>>:>>>>>,.+8yyyyyyy977,...            ",
"                                  .8888y8888.              .>>>>>>>>>.....8yyyyyy999..              ",
"                                  ..8888882..              .>>>>>....    ..yyyyy9999.               ",
"                                  ..8888882..              .>&&&&....    ..yyyyy7972.               ",
"                                   .8888882.               .>....         .8yyyy992.                ",
"                                   .88888...               ..              .yyyy9X..                ",
"                                   .88888..                                .88889..                 ",
"                                   ..+888..                                ..+887X.                 ",
"                                   ..+888..                                ..+889..                 ",
"                                    .+888..                                 .+889..                 ",
"                                    .@888..                                 .+99,..                 ",
"                                    .+8,...                                 .+9,...                 ",
"                                    .....                                   .....                   ",
"                                    .....                                   .....                   ",
"                                                                                                    ",
"                                                                                                    ",
"                                                                                                    ",
"                                                                                                    ",
"                                                                                                    ",
"                                                                                                    ",
"                                                                                                    ",
"                                                                                                    ",
"                                                                                                    ",
"                                                                                                    ",
"                                                                                                    ",
"                                                                                                    ",
"                                                                                                    ",
"                                                                                                    ",
"                                                                                                    ",
"                                                                                                    "
};
