/* XPM */
static char *_57d1c0a60454b91b2a36437cf47caeeDwSdJD0iXFySu1CQ[] = {
/* columns rows colors chars-per-pixel */
"100 100 37 1 ",
"  c None",
". c black",
"X c #010101",
"o c #0C0805",
"O c #0E0906",
"+ c #0F0A07",
"@ c #100A07",
"# c #1E140D",
"$ c #181818",
"% c #66432E",
"& c #6D4831",
"* c #6E4831",
"= c #6F4932",
"- c #704932",
"; c #704A32",
": c #794F36",
"> c #7A5037",
", c #7D5238",
"< c gray26",
"1 c #81543A",
"2 c #8E5C40",
"3 c #8F5D40",
"4 c #905E41",
"5 c #956242",
"6 c #9A6545",
"7 c #9C6646",
"8 c #9E6747",
"9 c #9F6747",
"0 c #A26A48",
"q c #A26B48",
"w c #A36B49",
"e c #A46C49",
"r c #A56C49",
"t c #A56D4A",
"y c #A66D4A",
"u c gray87",
"i c gray94",
/* pixels */
"                                                                                                    ",
"                                                                                                    ",
"                                                                                                    ",
"                                                                                                    ",
"                                                                                                    ",
"                                                                                                    ",
"                                                                                                    ",
"                                                                                                    ",
"                                                                                                    ",
"                                                                                                    ",
"                                                                                                    ",
"                                                                                                    ",
"                                                                                                    ",
"                                                                                                    ",
"                                                                                                    ",
"                                                                                                    ",
"                                                                                                    ",
"                                                                                                    ",
"                                                                                                    ",
"                                                                                                    ",
"                                                                                                    ",
"                                                                                                    ",
"                                                                                                    ",
"                                                                                                    ",
"                                                                                                    ",
"                                                                                                    ",
"                                                                      .....                         ",
"                                                                     .99+.>.                        ",
"                                                                     .97+.=.                        ",
"                                                                 ....X99+......                     ",
"                                                                ..999.79+.999+........              ",
"                                                              ..X97999999999999999999....           ",
"                                                              ..99779999799799997988888+..          ",
"                                                              ..79999799998899997988888#@.          ",
"                                                             ...7999999tyyttt990888888889..         ",
"                                                            ..2899yyttttyttttttytttttt8899..        ",
"                                                   ..........888yyyyyyyyyyyyyyyyyttttyyw997...      ",
"                                         ...........2888888888yyyyyyyyyyyyyyyytXi.5tyyttt999+..     ",
"                                         .O@@@@@@@@@4888888808eyyyyyyyyyyyyyyyy$u.5tyyttt999#@.     ",
"              ............................288888888888888888eyyyyyyyyyyyyyyyyyyi<.6yyyytt97999.     ",
"           ....88888888888888888888888888888888888888888yyyyyyyyyyyyyyyyyy,yyyy...5yyyyyy88899.     ",
"          ..288888888888808yyyyyyyyyyyyyyyyyyyyyyyyyyyyyyyyyyyyyyyyyyyyyyyy,yyyyyyyyyyyyy88....     ",
"         ..888888888yyeyyyyyyyyyyyyyyyyyyyyyyyyyyyyyyyyyyyyyyyyyyyyyyyyyyyyyyyyyyyyyyyyyt88....     ",
"         .@888888088yyyyyyyyyyyyyyyyyyyyyyyyyyyyy0yyyyyyyyyyyyyyyyyyyyyyyyyyyyyyyyyyyyyyt88@...     ",
"         .888888yyyyyyyyyyyyyyyyyyyyyyyyyyyyyyyyy,yyyyyyyyyyyyyyyyyyyyyyyyyyyyyyyyyyyyyyt088@..     ",
"         .8888yyyyyyyyyyyyyyyyyyyyyyyyyyyyyyyyyyyy,yyyyyyyyyyyyyyyyyyyyyyyyyyyyyyyyyyyyye88888.     ",
"       ...88eyyyyyyyyyyyyyyyyyyyyyyyyyyy>yyyyyyyyyyyyyyyyyyyyyyyyyyyyyyyyyyyyyyyyyyyyyyyt888+..     ",
"       ..880eyyyyyyyyyyyyyyyyyytyyyyyyyy,,0yyyyyyyyyyyyyyyyyyyyyyyyyyyyyyyyyyyyyyyyyyyy08888+.      ",
"       ..888yyyyyyyyyyyyyyyyttttyyyyyyyy11eyyyyyyyyyyyyyyyyyyyyyyy50yyyyyyyyyyyyyyyyyey88882O.      ",
"      ...888eyyyyyyyyyyyyy8ettttyyyyyyyyyyyyyyyyyyyyyyyyyyyyyyyyyy.288yyyyyyyyyyyyyyy888888...      ",
"      .28888eyyyyyyyyyyyy88899yyyyyyyyyyyyyyyyyyyyyyyyyyyyyyyyyyyy...88yyyyyyyyyy888888888..        ",
"      .28888eyyyyyyyyy888.88799yyyyyyyyyyyyyyyyyyyyyyyyyyyyyyyyyyy8@..8888887999888888888..         ",
"      .28888eyyyyyyyyy888....997yyyyyyyyyyyyyyyyyyyyyyyyyyyyyyyyyy888.....99999988888.....          ",
"      .28888eyyy0yyyyy888@@..299yyyyyyyyyyyyyyyyy0yyyyyyyyyyyyyyyy888@@@..22222222222.....          ",
"      .28888eeyy,0yyyy88888O..990yyyyyyyyyyyyyyyy,yyyyyyyyyyyyyyyyy88888@.............              ",
"      .2888800yyy1,yyyyy88889..988yyyyyyyyyyyyy,,yyyyyyyyyyyyyyyyyyyyy88999.                        ",
"      .2888888eeyyyyyyyy888888.888yyyyyyyyyyyyyyyyyyyyyyyyyyyyyy,yyyyy8888..                        ",
"      .2888888yyyyyyyyyyy88888.8yyyyyyyyyyyyyyyyyyyyyyyyyyyyyyyy,yyyyy8888.                         ",
"      .2888888eyyyyyyyyyy88888.8yyyyyyyyyyyyyyyyyyyyeyeeyyyyyyyy1yyyyy8888.                         ",
"      .28888870yyyyyyyyyy88888.8eyyyyyyyyyyyyyyyyyyy8899yyyyyyyyyyyyyy8888.                         ",
"      ...888888eyyyyyyyyy88888.8yyy:yyyyyyyyyyyyyyy8O.998yyyyyyyyyyyy888+..                         ",
"       ..8888870yyyyyyyyyy888..8ey>yyyyyyyyyyyyyyy88@.99888yyyyyyyy8888....                         ",
"       ...889999yyyyyyyyyy888.88eyyyyyyyyyyyyyy88888O.88888yyyyyyy8888..&>..                        ",
"       ...687999yyyyyyyyyy888.80eeeyyyyyyyyyyye88888@.88888yyyyyyy8882.O&:O.                        ",
"         .,88897ttttyyyyyy888.88888yyyyyyyyyy8888888O.999tttyyyyyy999..>>>>..                       ",
"          ..28979ettyyyyyy888...28888yyyyy8888888888@.999tttyyyyyy9+..>>>>>>....                    ",
"           .29999yyyyyyyyy888.>>O...888888888888888....98tttyyyyy99+.>>>>>>>>>>......               ",
"           .-,999yyyyyyyyy888.>>>>>.................  .9888tyyyy09...>>>>>>>>>>>>>>>...             ",
"           .%-689yyyyyyyyy922.>>>>>O................  .9997ttttt99...=&&>>>>>>>>>>>>Oo.             ",
"            ..,88eyyyyyyyy9+..>>>>>>...               .9798ttt9899......&>>>>>>>>>>>>>.             ",
"            ...,888yyyyyyy8+.>>>>>>>>>>.              ..999ttt889..    ................             ",
"              ..888yyyyyy9.....>>>>>>>>>.              .9999t9889.                                  ",
"               .8888yyyty..    ....>>>>>.              ..2999977..                                  ",
"               .2888yyyty..    ....&&&&>.              ..2997999..                                  ",
"                .288yytt8.         ....>.               .2977999.                                   ",
"                ...0yytt.              ..               ...99979.                                   ",
"                 ..89979.                                ..99999.                                   ",
"                 ..879+..                                ..999+..                                   ",
"                 ..899O..                                ..977+..                                   ",
"                 ..899@.                                 ..999+.                                    ",
"                 ..,88+.                                 ..888+.                                    ",
"                 ...,8+.                                 ...,8+.                                    ",
"                   .....                                   .....                                    ",
"                   .....                                   .....                                    ",
"                                                                                                    ",
"                                                                                                    ",
"                                                                                                    ",
"                                                                                                    ",
"                                                                                                    ",
"                                                                                                    ",
"                                                                                                    ",
"                                                                                                    ",
"                                                                                                    ",
"                                                                                                    ",
"                                                                                                    ",
"                                                                                                    ",
"                                                                                                    ",
"                                                                                                    ",
"                                                                                                    ",
"                                                                                                    "
};
