/* XPM */
static char *_351f6e4d1e14aa7a531a115d9fe3e3c7fPmeJ8gQNibDC6j[] = {
/* columns rows colors chars-per-pixel */
"50 50 219 2 ",
"   c None",
".  c #2D0000",
"X  c #330000",
"o  c #3D0101",
"O  c #380B09",
"+  c #440001",
"@  c #4B0001",
"#  c #490C0B",
"$  c #540001",
"%  c #5B0001",
"&  c #5E0D0D",
"*  c #571107",
"=  c #4B1614",
"-  c #551814",
";  c #630101",
":  c #6C0001",
">  c #6A0808",
",  c #730001",
"<  c #7C0103",
"1  c #750909",
"2  c #651714",
"3  c #701210",
"4  c #562212",
"5  c #65381B",
"6  c #662016",
"7  c #5A2624",
"8  c #59322F",
"9  c #642926",
"0  c #6A3834",
"q  c #72312F",
"w  c #6C492A",
"e  c #7B542A",
"r  c #70562D",
"t  c #714737",
"y  c #7D6739",
"u  c #7D5750",
"i  c #830102",
"p  c #8C0101",
"a  c #810E0D",
"s  c #920002",
"d  c #9C0002",
"f  c #950C0E",
"g  c #981212",
"h  c #A40003",
"j  c #AC0004",
"k  c #AC0208",
"l  c #BC0002",
"z  c #B40109",
"x  c #BB0009",
"c  c #B60003",
"v  c #B50F16",
"b  c #AF1619",
"n  c #AB1D20",
"m  c #973A38",
"M  c #8B2B2A",
"N  c #A12526",
"B  c #BF2E32",
"V  c #A93A38",
"C  c #B63739",
"Z  c #C4000B",
"A  c #CC000C",
"S  c #C70005",
"D  c #D3000D",
"F  c #DB020B",
"G  c #C90C14",
"H  c #D80311",
"J  c #C7141C",
"K  c #E2000F",
"L  c #E70817",
"P  c #E21723",
"I  c #D8242C",
"U  c #E5232D",
"Y  c #845038",
"T  c #836C3D",
"R  c #88673A",
"E  c #8B713E",
"W  c #CD3D42",
"Q  c #884742",
"!  c #934C49",
"~  c #89554D",
"^  c #875851",
"/  c #935955",
"(  c #965955",
")  c #AF4A47",
"_  c #B14B4A",
"`  c #B85E5C",
"'  c #BC514F",
"]  c #876F40",
"[  c #866547",
"{  c #8C7342",
"}  c #877041",
"|  c #917643",
" . c #957A45",
".. c #997C46",
"X. c #9B7E4A",
"o. c #967C4A",
"O. c #956954",
"+. c #BB625F",
"@. c #986D66",
"#. c #896A61",
"$. c #A66F65",
"%. c #BC6B67",
"&. c #A3726C",
"*. c #C74E4F",
"=. c #E75357",
"-. c #F34A53",
";. c #CA5F60",
":. c #EB5E64",
">. c #D76365",
",. c #C77270",
"<. c #F07073",
"1. c #9E814A",
"2. c #9E835A",
"3. c #A2844B",
"4. c #A7884D",
"5. c #A9894E",
"6. c #A68951",
"7. c #AB8C52",
"8. c #A78E5D",
"9. c #B09157",
"0. c #B5955D",
"q. c #AC9059",
"w. c #AA926C",
"e. c #BC9C64",
"r. c #B49C6D",
"t. c #BA9B65",
"y. c #A9867D",
"u. c #B29B73",
"i. c #B9A176",
"p. c #BDA36E",
"a. c #C2A26C",
"s. c #C7A671",
"d. c #CCAB76",
"f. c #C4A87A",
"g. c #D1AE7B",
"h. c #EB7E80",
"j. c #AA8D82",
"k. c #B48D86",
"l. c #B3998E",
"z. c #B79D90",
"x. c #BAA48C",
"c. c #D68A87",
"v. c #C69E97",
"b. c #DD9B98",
"n. c #CE8A89",
"m. c #E58989",
"M. c #E0918F",
"N. c #F48F8F",
"B. c #CAB384",
"V. c #C8B38E",
"C. c #D9B685",
"Z. c #DEBB8B",
"A. c #D3B786",
"S. c #DFA29E",
"D. c #D1BE99",
"F. c #C4B08F",
"G. c #E0BF8F",
"H. c #ECA09F",
"J. c #CBB7A9",
"K. c #D3B4AC",
"L. c #D6BBB2",
"P. c #CFACA3",
"I. c #EAA6A4",
"U. c #E7BBB4",
"Y. c #DAC295",
"T. c #D6C195",
"R. c #E4C294",
"E. c #E3CA9E",
"W. c #E8C99B",
"Q. c #D2C2AE",
"!. c #DBC8A6",
"~. c #D4C3B3",
"^. c #DBCCBC",
"/. c #D8C7B6",
"(. c #DDD0BF",
"). c #ECCDA3",
"_. c #E5CFA5",
"`. c #EDD3AA",
"'. c #EED1A6",
"]. c #F2D5AC",
"[. c #F1D8AE",
"{. c #E2C4BC",
"}. c #E5D4B3",
"|. c #E8D8B9",
" X c #F5DBB4",
".X c #F9DEB8",
"XX c #FAE4BD",
"oX c #F6E2BC",
"OX c #E8CBC4",
"+X c #E1D5C4",
"@X c #E4D8C7",
"#X c #E4D6CC",
"$X c #E6DBCA",
"%X c #E8DDCC",
"&X c #EBD6CD",
"*X c #E8DCD2",
"=X c #F4DCD6",
"-X c #FCE7C1",
";X c #FEEBC6",
":X c #FEEDCA",
">X c #F3E3C3",
",X c #FFF0CD",
"<X c #EDE6D9",
"1X c #EFE9DD",
"2X c #EEE2D6",
"3X c #FEEFD2",
"4X c #F0EADF",
"5X c #F4E9D7",
"6X c #FFF1D2",
"7X c #FFF5D8",
"8X c #EDE1CA",
"9X c #F3EDE2",
"0X c #FAECE4",
"qX c #F4F2E5",
"wX c #F5F6EA",
"eX c #F9F3E9",
"rX c #FCF9EF",
"tX c #FCFCF3",
"yX c #FEFEFA",
/* pixels */
"                                                                                                    ",
"                                                                                                    ",
"                                        OXS.*.v h d < > /                                           ",
"                                    *XeXrXtXtXU.n d s a ( 4X#X@.                                    ",
"                                  9XrXeXeXeXeXtX,.s s s a Y Q > @                                   ",
"                                I.tXeXeXeXeXeXyX,.s s s p ; $ $ $ @                                 ",
"                              U N.=XtXtXrXtX0Xc.f s p p p < / j.q @ @                               ",
"                            P <.=.I >.M.b.,.C d s s g ) ) m v.1X/ $ + +                             ",
"                          F -.<.H S x c j h d d s g L.rXeXK.@.@.9 $ @ @ y.                          ",
"                          -.<.U A Z x z j h d s p _ tXeXeX2X/ $ $ $ + 9 ^.~.                        ",
"                        &XeXm.D A x x z h d d s s N &XtXrXK.q % $ $ @ 0 (.%XL.                      ",
"                        eXrXU.G Z x x W i.C f s s s N ,.%.M % % $ $ + 9 /.#X%XQ.                    ",
"                      #XyXtXH.A Z x b I.tXn.g s s s s p p , % & ^ k.t # z.$X+X@X/.                  ",
"                      U.0XH.I Z x z k C ;.N p p s p s s p ; % ~ #XwXL.7 8 ^.$X+X$X/.                ",
"                      L =.D S Z x z j d s p s p s s p s < ; % / #XwX^.9 o 0 J.$X%X%X@X              ",
"                    D L I D Z x z k h d d s s s s s d p : % $ 2 &.F.^ # o o = u j.z.l.#.            ",
"                    H F D Z S c k k d d s s s s s s s i ; % % % $ @ + + + o X X X X X . .           ",
"                    K D A Z W M.;.k d s s p s s s p p : % % % % $ @ + + + + o o X X . . . .         ",
"                  D F D A J OXyX=X' d s s s d p s g < % % % % % $ @ + + o o o o O 7 t 8 O O         ",
"                  F F A Z J I.rXU.V d p s s p ` {.&XK./ ; % % $ @ @ + + + o o = j.(.#X+Xz.[         ",
"                H F D A Z x v C n d s s s s ,.9XqX4X9X*X( % % $ @ @ + + + o O y.$X+X@X^.i.8.        ",
"                F F S S l c j h d s s s p f K.4X1X1X1X<Xk.; $ @ @ @ + + + o - Q.#X+XQ.w.4.1.        ",
"              :.<.m.m.m.>.B k d d s p i < 1 v.9X1X1X4X<X&.$ $ @ + + + + o o = J.@XJ.2.| 1.          ",
"            <XwXrXwXwXwXqX<XK.) p i i < < , M L.qXqX<Xl.2 $ $ @ q ^ - + o + O ^ w.{ | 1.{           ",
"          #X1X1X1X1X1X1X1X1XqX%X%.i i < < , , 3 ! ( q & $ $ @ - j.%X@.# o o 4 w E ....]             ",
"          2X9X1X1X1X1X1X1X1X1X4X(.V i < < , , > % $ $ $ % $ @ & y.@X@.# 4 w T  ...{ y               ",
"          #X1X1X1X1X<X1X1X1X1X4X&X` i < , : ! J.Q $ % $ $ $ $ @ 9 ^ w w T E ....E y                 ",
"            +X<X1X1X1X1X1X1X<X<X/.m , : ; % $.$X&.$ $ $ $ $ * 4 5 r R E  .1.| T                     ",
"            |.2X(././.Q.Q.~.~.Q.$.> : ; ; % 3 Y 2 * 4 5 5 w r y T { ..3.X.{                         ",
"              }.7X8X!.Q.x.i.w.8.O.R Y e e e e e R E | y T } { | ..3.3.X.                            ",
"                T.>X7X>X|.}.!.V.B.i.i.r.r.r.r.r.r.8.1.o.o.1. . .{                                   ",
"                    B.!.}.XX;XXXoXoX[._._.Y.B.p.8.3.1. .| } T y T                                   ",
"                              D.T.Y.B.p.t.8.6.1.1.....| E { T T T                                   ",
"                                    s.s.e.0.7.4.3.1.X.....{ { T T {                                 ",
"                                    XXXX'.R.Z.g.e.7.1.....| { { } }                                 ",
"                                    ;X;XXX'.R.Z.C.g.a.7.X.....{ { { {                               ",
"                                  -X,X;X;X;X[.Z.C.g.g.a.t.3.....{ { { {                             ",
"                                >X6X:X;X;X;X;X XC.g.d.s.a.t.6.....| { {                             ",
"                                :X7X:X;X;X;X;X:X Xg.d.s.a.e.0.4.X...{ |                             ",
"                                :X7X;X;X:X;X;X:X;XE.d.s.a.t.0.7.1..... .o.                          ",
"                                3X6X;X;X;X;X;X;X;X-XC.s.a.e.t.9.3.3.....o.                          ",
"                                3X3X;X;X;X;X;X;X;X;X'.a.a.e.0.9.7.3.1.1.X.                          ",
"                                :X3X;X;X;X:X;X;X;X;XXXA.a.e.0.9.7.5.3.3.1.                          ",
"                                ;X6X;X;X;X;X;X;X:X;X;XE.a.e.0.9.7.5.4.7.6.                          ",
"                                -X:X-X;XXXXXXX;X;X;XoXY.a.t.0.9.7.5.5.5.                            ",
"                                  XXXX X X'.W.W.R.C.s.a.t.t.0.5.5.5.5.7.                            ",
"                                  .X X'.'.W.G.d.e.9.5.5.4.5.7.5.4.5.9.                              ",
"                                    ].'.R.a.9.4.4.4.5.5.5.4.4.5.5.9.7.                              ",
"                                        9.5.5.5.5.7.5.7.5.7.5.7.9.7.                                ",
"                                                                                                    "
};
