/* XPM */
static char *_13e45a1ff8e47149ef3e30f788d6f4aWvigM4jb7ccoY8qj[] = {
/* columns rows colors chars-per-pixel */
"101 101 53 1 ",
"  c #110F11",
". c #151315",
"X c #191719",
"o c #1D1B1D",
"O c #211F21",
"+ c #252325",
"@ c #292729",
"# c #2D2B2D",
"$ c #31302F",
"% c #302E30",
"& c #343234",
"* c #383738",
"= c #3C3A3C",
"- c #403F3E",
"; c #403E40",
": c #444244",
"> c #484648",
", c #4C4A4C",
"< c #514F51",
"1 c #545254",
"2 c #595759",
"3 c #5D5B5D",
"4 c #5E5F60",
"5 c #605E60",
"6 c #646264",
"7 c #686668",
"8 c #6D6B6D",
"9 c #706F6F",
"0 c #71706F",
"q c #716F71",
"w c #757375",
"e c #797779",
"r c #7D7B7D",
"t c #807F7F",
"y c #81807D",
"u c #817F81",
"i c #848284",
"p c #888688",
"a c #8D8B8D",
"s c #908F8E",
"d c #92918E",
"f c #8F8F90",
"g c #908E90",
"h c #959394",
"j c #989795",
"k c #999897",
"l c #989698",
"z c #9D9B9C",
"x c #A09F9D",
"c c #A19FA1",
"v c #A4A2A3",
"b c #A8A6A8",
"n c #ABA9AB",
/* pixels */
"r##r>*;*::3hp<rfu8ccaupuupup*uuuuauuauuauuuuuuw55552&&;77qqqwqewut6qq3&-;;;;;&luluuq;lvvnzuuuuuuluuuu",
"p2pvc=;=;;;2<Oo,;XO4lapupuua&8uuuuuuuuuuuuuuue5555<%#;O557qwuwew865;ulcczu;;#&luluu7%cvvuuuuuluuuuuuu",
"ierjp&#2wrfzllhllluq&8puuupr;;5ruuuuuuuuuuuq55555<;<zc2&w778q755-8lcvvccccvcu&uuuuut;vvlluluuuuuuuluu",
"i3*55;llzzlaaafahllla2aupau53#255uewwwwtqq555553<;ccauh#;q752;;lccccccvczlzccctqut8;uvvuuuuuuululuuuu",
"e1#*#zzllgagafapppugw2epuuu5*g2;525525525535552;unuuau7#;#%&ucccccccvbczuuuuvb%&;6;@bvluluuuuuluuuuuu",
"33&*5lhpaaaauuuuuuu55>7uupw5hcgl*22255221322<<;ccuue7;O;;<ucccccvccvczuhuzluuu;%7&;;bvuuuuuuuuuuuuluu",
"3<&&ilfaauupuupuu7252*7uau53ucupu5;54,qlg3;;%8cauu7;%O&;;lccccccvvvvuuulzuuuuu;llu;qnvuuuuuuuluuuuuuu",
"2az7elappupuppuuq552##57q855;lpuuua;&;ccaau*ccuuu3&&5cc%hcccccccbzuuhlluuzluul;lzl;ccuuuuluuuuuuluuu7",
"2pgu:haiupuppue522,;;*%575,=#>5uauu5%lcguau*uuuq;&%hhluuzcczzcchuluululhhhuuuu3luutcuuuuuuuuuuuluuuu5",
"2&8%@6qwuuuue7252;qglu*#;;>**%;,2wq2Ochghuu,252%%uhluue5cczzzchahllhululuuhuu7qcuu;8uuuuuluuuluuuuu75",
"=#.@**3555525252>cccccl#*#@;lcl,*;12ucaggau;#@#gluuuuqq3zcczccuhluullluuhuuhu3quuq;6uuuuuuuluuuuuuu33",
"*glsi%pe252522O<lcczllc5;%qccccbg5;2caahuuu;-gluuuwqqqw5;cccczgguhluhulhhuuuu;tut6;6uuuuuuuuuuuuuu733",
"&gii87pr#&-=@%2zlgagagll#5ccpplccccccghuuae*wggahwqwqq83*eczzzuhhulhuhluuuhuu;2u2;;53uuuluuuuuuuuu332",
"*>857<r9-=;->;gzgaaaapgl2alppuupugauuuuauuq%5gaguwqqq832;;ccccuhluullluhuuhuq&%;1;133uuuuuuuuuuqu533;",
"grO*==10hzy1%:zzaagpuuugupapuruuuuuq5uuuuu7&ugauwqqq531;*#zccchhulluuluhuuuuutuuu1;3238uuuuuu5333321;",
"pu%=jzzkxxzzp;zgaapuuuuuq;722555555555uuu5<;qauuqq733;;;el3zcchuluhluhhhuuhu;l3cbl%53336u8655533332;n",
"e*jzjlgsssgzl:zggauiuuue5&.<22222;*;333233;;%7wq833;;&;&zq;lczuhulhhulluuuhu;c;vllu#33552333322233<;l",
"7vzjsaasaaasl,lagpuipue55%u>%%*ulczu@12313;uzu;352;hz;;%c82lzzugluuhluluuuuu;u6uluu--3353333332<;&&;8",
"zksagffaagaag:xggpuuuu222%2Olccccvvvc5;5;3ncuz2%@wcccc*&e678cclglhhhhuhuuuuq-u57uuuq-&;;<<,;-@-qzu;;u",
"xasaaaaaaagpi>cgauuuu52<;*cbccccvcvvccv;%cnuuu1;ucbcccl;*33;zcluuluuuluuuuu3@63;cuuu&;-%&-;qlzxlzuu*u",
"laaaaaaaaaaau<cggiuu82,*4ccbccccccvcvvlu&zuuuu1;ccccbcc2uu5#zzuhhulhuhuuuuw2O&%q8uuu+2hzlzhhhhuauut1b",
"gagaaaagapuuu2zgauue51*abcccbcccccclzclu;;euuq;cccczuzculuu@lzluluullluuuh72;ll-w8u3-llhuhaaaagguut7v",
"pagaaaaaapuu2,gere721;hccccclgaauluuzlzuu;6qu66cccluuuuuuu1&ulululhlhuhuuu7;ullcu1%&-uzgggguhaauuu8tc",
"aaaaagaaappp%>55<12<,gcccclgaaagluhzuluuu;;583uccluuughw%&cuOlughhuuhuuuuu5;zchu;;uu;;uuughuuuutuu88h",
"agaaaaagupup*>==>2<,uccccgggaaaaulzuluuue&&@&@vvcuuuuuuu*8cchuhuuhhhuuuuuq3#uzgu5;luu@t35555356tut7<v",
"aaaagaaupupu>gga7;%eccczgggaaappuuuuuuuuu*@cz&buuuuhuuuu8;uuu8ulhhuluhuhu82@uzuu6;cu5;;;57535535t56<c",
"aaagaaapupuu5aaag;*gzzlggggaaapuuhuuuuuuw;uvu;uuuuuuuuhu8;uweuuhhuhuhuuuut1@uhuw1ll;;;;uhlat1%32566;u",
"gaaagauupuuu<puua52zzlggaaaaauppuuuluuue8;vue1uuhuuuuhuue;777q6uhuhhuhuuu7<3tuu5&lu7;uhhhllhkh6-;2;-u",
"paaaaapuupuq=7uue,gzlggagaappupuzuuuuuue3;lqq3uuuuuuuuuu6%&66q;7uhuhhuhuu7;8;655%3q2cllllllzlzlz--;5;",
"eaaaaupuuuu5*5eu2>rghgggaapppppuuuuuuueq3&u7667uuuuuuuuu7#;%78%37uhuuhuuu6;6;@3;x-tlzlllzlzxlzlzl%ulu",
"%qaaaupupup2*>25<2uuggggapppuuupuuuuuuw63%67;75qq8uu835528l;qw&338huhuuuu2;htOg--;hhlxlllhhlguczhtduu",
"%27pupupupu5**25=qreuggappuuuppuuuuuwu731%35;5665533332*ehch#;;#33qhuhuuu2-u8zut-uxhllhhhluuhhuclh-tt",
"%*55upiiuii3*%&@.17337wuuuuuuuuuhuuuu853<%%%+*3333322&*wcuuw.cbu;328uuuuu2;###3;3uhllhhuluzuzuzullu,2",
"#%=54riruii1@<llu+233336euuuuuuuuuuw8332<1cz<*+*;;;%8u%uuu8q;buu;;23uhuq53&ccv;#uzhzhhlhulululucdlh%*",
"cz;<347piiu1=zfice#133357768uuueuwq8533<uccuu%qccbubq5;6;*;+@buew&;533333;;vlu;&cllzhluhluzuzuluahl;*",
"hul&3333ui7,2lapuuo#353565636367w753351*zuqw37cuwu75*#;uccb<%u8qu+;;1631;&2lu;;;hlluhuhuuzuluzuzghh3*",
"liu6*443333>iuupu8o>w=5533353533333332;%wq36%uu651#1unzcczcnb;7euuo;;;;;%1;81#;ullhhuhulluzuluzuaajq;",
"7ii5=,44443&piugl7*uu2%13533235533332wu**75<;;32;wlbbbzclllccnbqu8;v7&;O&1#;#;;uhculhuuhuzuzuluzaph7#",
"3ii6**3443,#5iiir3=>q8%**<<3333633536uuq;;;;<;&+uvcblzlbllllccbb;;blulbc1;8;;belhlhuuhluzuzuzulugaj5#",
"365<:%&:43##55rr5,&;771wcu*;,337265;uue;uczz<%%cncluuclucullllcbu@buuuuu;uvcvu5hcululuhluluzuluzaua5&",
",1#*<lcz5@uz;333=12%<8%que+&uvunc;%%261uvvcl71uccllblculululubccc#cuuuuw;luu;7;lzluhuluulhulzuzuua85#",
"vlz1zluui;zi6>3;lccczl5*32#unuuuuz*%+;lzluuu32bzuluuuucululuzuuzbn6uuu5;;8u5#;wzzuluhllhulluuluhuu55&",
"uii5uliiu87rw&#lcccccczluo&7u8873;%%Ozbcuuu383blluucluuluzuzluluccubl5;;&25@;;uchlulluulluulzuuuuw35;",
"6761,lruuu,57&lzczzzlccccv5=53335zzz#uzuuw35;buzulcuullululuuzuzulc;72vz2;;eu+hzuuluuhluhluhuhuhp533;",
"+O*=%cruruq&%lczvvcvzzllcunn*;*>cbnneuuu85517zzuccuuulululuczululhluOunbu#;eu;llhuhululhulluuuuuw55;;",
"vcccb+6weq5;1zlcllululuuvuuuu%*vcuuue3w35523cuuluuuclucuculuuzuculuz%luuue;;55luulluhlulluhuuuuu557-l",
"cccccc>5536;lzclulluulllcuuuuu,buuuul@5221;6uluululuululululucluuuuz;huuq5uu;qhulullulhuhuuuuuuu552qc",
"lululcce;*#uzlculuulluluucuuuu7uuuuuuO;2+u3wuzuzulullucuzuzulucuuuuu68uu7;;8&uuhulhuluuluuuhuhuu55%xx",
"uulhulcnb%*zcvuluvuuvuuvuuuuuu1uuuuuu#bnz,<6uuuulululuzuzuzuzuuuuuuu5;hq&cuO&7uuuauhagggguuuuuu55;ucg",
"lhlulluuu%ucculuuccuucuccuuuuuu5uuuuu>bnu&65eucuuculuculucuzuuluuuuuq312chw&#3ullglhaluguuauuu835&chg",
"zuulluuue&llbuulvuuvucuuuuuuuuu*uuuue8uuu536wuuuluculucuuululuuuuuwuq2@;uq%lo5uhagguguuuuuuauu35;5chg",
"hlulluue5wcclluluucuvuuvuuucuuu%8uuu27uuu636eeuuululuzuccuuuuuuuuuuwq3#;O;#uO7uhluahluugauuuuq53Oulgg",
"ululhuiw:lclululuuvucuvuucuuuuu;728151uu7,33qeeuuczuzuuuuuuluuuuuuuw83;%ccnc 5uugaulguuuuauuu23O;clgg",
"luluuhiq#llcullucuucucuuuuuucuu,=223o3367&337weuuuuucucuzuuuuuuzuwwu53%7cccbu5uhaaluguuuuuuu737l;chga",
"hullluu7%lluluuluvcuuvvuuuuuuuu32ucue335;#2337eeueuuuuuuuuuuuuuuwuww53#zcuuhq5uuluuuuuuauugu5<l5;chga",
"ulhuuui5;cclululucuvuuuuuuucuuu6vcbbnu;;;#13356quuuuuuuuuuuuuuuuuwuu73#cuuuu88quuhhuguuuuuuq55u5;caag",
"luuiiiq11llulhulvucvuuuuuuuuuuu1vvuuuu1;&@,132358weeeeeuuuueuueewuq555#cuuuu17wuhuuuuuuuuuq33873hgaag",
"uluiir7,,uvuulluuuuuuccuuuucuuu3uuuuue17nn*<132357qwweeeuueuweeeew5332;cuuu7;5wuuuuuuhuuut532t2egaagg",
"luiiuq6,2wulluulucuucuuuucuuuuu827uuu6;uuuu;*;11233567qqeweeewrwq33532%chu7&#;qqtutuuuuut555;#qhaaaag",
"uuiiw3,;67euululcuvcuuuuuuuuuuu8;68uu6,vuuuuu;+#;;<133536656767633353337uu5u1;;35q35qqww5555O5hgagaaa",
"uuuw2==%533rllulucuucuuuuuuuuuuq=36e83#uueqquw;;;*%*<<122355535322351;u5u5;zu#;;;1335555553O2hgaagaau",
"ui7,=vbc*333iuluvuuvuuuuuuuzuuu6#;653<;8uu6%;;@*uvz;&*%%,2122322211;&55O12;122u2%&&1533222o;caaaaaguu",
"q7;#cbul,>323uulcuucuuuuuuuuw631eu>628uczuuzuq#5nucc;ccc#%O+*;*&;&%5;zz3q;ucclo;cq&#;;;;;o5lgaaagguuu",
"7,;*nuui6>1336iuuvuuuuuuuw88332*nu1+2uvuvuclccu3<257unu71;,uvvvc;n55cccnO;cuhll;5;2uq5q2%*gaaagaaauuw",
">;3*viiuq+:<332quuuuir83332333>@rw2;pzlggaagglzcu>*#l85<%%gclllheu5ccuuu4;euuw55;hccapgxxOlgpppuuw775",
"*;u,uiiu3=+;>1336q77333333333>%%54*rglgaaaagagglczl;%#<;5l,555555#bcuuu5u2;552#hg&u89wuua&5guueq852;;",
"%ww<>8ew;qlzw:<333333333331<=2lu<%*gllgaaaaaaaaapglca;*@cqw55552#Ocuuu5=awq>O&*8;*%%,9732&&321,;;;@uu",
"=ii7,;27&lrrr7=<133323332<>&3vvbc2<gggaaagaagaaaaagglcu#758q;*;5p1cur8<%;,5lcbcccccl2-$+wp7&#%;quu#e3",
"llcvbbq#:iirr6#%@#*%#%%**%#=cbuugeegggasaaaagagaaaaaagcc5#;,%pl*,5lr51;;uccccccccccclx3-pu5Occlxzlu#q",
"ccvccccvw=%,2;@ulu*ucvvvu%:lcuuuu<;epgaaagaaaaaaaaaaapzccp=*<lurO*242;ucbccbllgghlcxlllg<5#llxlaggz;c",
"ccclcvvcbce=**>vcl2cvbvvnv&lccuuu,#25euapaaaaaaaaagappugcllu#ww2;*#<#lccccclgaaaapahhllxh*#cclpagu5cz",
"llllululcvvc3%,vle6czuiiuq=@*6uu5;,%228euuuaaappaaapupuuuglca@*;ul5%uccbcclaaaagaaauuahhgu;lcgaagu;cz",
"llullulllllcvl%luw6urri77*uni*&<:zg**<258qreerrtuuuuurrrrrullq#ucuu,ccccnhaaaaaaaaaauuuaau<2lgagu7ucl",
"ulluluulullulci%75:,7iq8@zcbb7==ccca%:<225577qewwwwewrwwwwruu8;cuuuucbbclaaaaaaaagpuppuueuw5laguu5bch",
"luululluluuluzlu1+=*556@cvbblv=ccpupu@%;><<>53,355575qq8q55755;uuu5cccclaaaagaaaaapuuuur555wggau8;czh",
"ulullullululluluu:lv=%#lvvluulu3cpiiu%ra;##@czl;25255555555557O5uu>ccclagaaaaaaggupuuaw5552lagup7;chu",
"lululululululluuuwwuu&,ubblzluu7laupu>cir7;@jzzzO>2255525255;O<;52rccapgaaaaaaaauuupuw5555*cgaup57cha",
"llulllulllullulur7;>&%=5bzuuulur;upuu:uruu,@qvqe5**;>;,>;;*>cca>>;alaagaaaagaagauapuq5551>>ggupu;lzaa",
"uluuuluuuluuuluuw62>1zc*cuullule=27e5%#575,>;153,u=#8lu<%O#ccgcc2,uggaaaaaaagauuuuuw5525<;uaappu@chgg",
"lulllulllulluuuu73>>ulc:nuzuuuuw2*15<*=%@#*==**=gr5,gbcbb*2cuuupc2ugaaaaaaaaaauppu855522uuuauuu8*chaa",
"lulllulluluuiiiu53=:lur2buuuuuuegh;@&*5glzcbczp,<625buruun<vuiirq5euaauaaagghuuue755552uuqwuuua5*cgaa",
"uluuuluululiiiiu33&&ir822uuilur8aue@;ccccxzzzxvcu=&=ucruuu*qr53,;;,uaagaaagauuuq55555<8uq<%5uup5&cgaa",
"llulllulhuiiiiiq33#**5,,:,7wi777%5<hnzzczxzzxzzcvvq#16ieu7*;<>=&&#&5uaagaaauuu552555;Opr5<1<5585,chaa",
"lululululuiiiii753#;&ivnb3,2662;;4ccccczxjjzjlzcccvc;><<1;&;7lczcc;55uaaguuuq555552%;c188cccc<5;3haaa",
"ulululhluuuuiii733&rcvliuu==:>::ubvczccvjgghggghubvvv*=*@8vcvvccccq&55quuuu75535,;#pccc%cpuuuu;%qugga",
"luulluuuuuhuiir55,:vbuuur5zbu=:uvncczzzchhfaggggzuluzl%2ubvcbnclgah3;5558555551;%Olbhar#cuuuuuu#5quha",
"ulluuluuuluuiiq55>2bulur7iuui<lvvzzzzlluaaaagfasullucl;cvbccvuucghah;*,523521;;O#O55555Ocuuuuuw&28uaa",
"llulluhuuuuuiu632*1uuui6<crr38bvzzzzllcusaaagaaalluluu&cvbuuulcughauhO;;;;;*;*;ccccccuO#cuuuuu8*<5uaa",
"ululuuuuiiiiiq351:>6677137w53vclcllvluuzuucuuuzuuzuluz&vvulzucucguuuau;;&OOO&&laaaahglh%auuuuu8*;58ua",
"luhuuuuliiiii535,<6l,3:u:1<7cczlcblucuzuczucczuczuzucu&cbllulllcuuauaua5*ulu%caaaaggahuwuuuuuu8**25ua",
"uuuuuluuiiiu6532@6cuu&uur#qcvzzzcucuuzulucuuuccuuzuzuu&vculvuzuuuuuuuauu*au;chgaaaauuau8wuuuuw8*#;57u",
"uuuluuuuuiiw335:%cui7*w67&zczzzlnuucluzuzuzuzuuuzuluzu#vccuuzuuuauauuuuaqO1ahuaauuauuu85#q88w818@&55q",
"eiiuuuuuiiu5332=+bui7&%;@%zczllhucuuzucuuzuuuzuzuzuuur#clucluiiiuuuuuuueq;%5cuauuuuaue8;;*&,*%;ca%;55",
"7eiiuuulii85536b8urq2=unc*lzzllucuucucuuzuuccuzuzuziu85clluzuiiuauaaauuw5%;;uqwwewq8qq15cccc7%5au#&25",
"36wruuuuiw53537ui=5;#vvvh2ecllluucvuuvucuucuuczuuzuir5eclulcuuiiuuuuuue75*clO1558555;O;ccccccc;5u1O&5",
"3366eiuuq5333<>uiq@%lvclui,cucuhucuucucuczuzuzucuuui25iccuuuuuiiauuuuee85hhug%%lclcch5unccllccc2*;&u;",
"*525535335353**lr8><vculul=ululululllululluluuuluiue2<lcuuuuiiiiuauueeq82luuu;cuuauue<ccclllllccl#uu*",
",22555355335:%=662%bnulclueicuululluluullululluuiuu55*zbluuuiiiiuuuueuq;cuuue1cuaaau5&ccclllllhlcc*5;",
"li2<3533533>+<;#>=wbcluuuuu:ulllluulululululcuuuiiq32*luuuluiuuuueueeq8;cuuuu<cagguu5;ccchlllllllcc*@",
"qu7%>33553>>r:>uu;vnuuuuuuu2uuuuullulullluluuuuurw636%ewuuuuiireeeuee75Olue5q;cgahuu55cccllllhllhhch;",
"*:<%*&;,>:&li7euurvuuuiiuuluwuuuulluuluuuuuuuuuuq553;#ewewwewerreeeq575O@*582*laauau2ucccllclhhlllgcu"
};
